# xmcd CD database file
#
# Track frame offsets:
#	150
#	26476
#	53252
#	84977
#	108887
#	138363
#	174364
#	198065
#
# Disc length: 2988 seconds
#
# Revision: 0
# Processed by: cddbd v1.5.2PL0 Copyright (c) Steve Scherf et al.
# Submitted via: CDex 1.51
#
DISCID=500baa08
DTITLE=New Cool Collective - Trippin' CD1
DYEAR=2005
DGENRE=Jazz
TTITLE0=Perry
TTITLE1=Son Of ChaCha
TTITLE2=Ms.Wilson
TTITLE3=Propeller
TTITLE4=Bambolé
TTITLE5=Black Labe
TTITLE6=Conga Yeye
TTITLE7=Jam
EXTD=YEAR: 2005
EXTT0=
EXTT1=
EXTT2=
EXTT3=
EXTT4=
EXTT5=
EXTT6=
EXTT7=
PLAYORDER=
